<?xml version="1.0" encoding="iso-8859-1"?>
<!-- Generator: Adobe Illustrator 19.0.0, SVG Export Plug-In . SVG Version: 6.00 Build 0)  -->
<svg xmlns="http://www.w3.org/2000/svg" xmlns:xlink="http://www.w3.org/1999/xlink" version="1.1" id="Capa_1" x="0px" y="0px" viewBox="0 0 50.5 50.5" style="enable-background:new 0 0 50.5 50.5;" xml:space="preserve" width="512px" height="512px">
<g>
	<path d="M25.25,0c-4.216,0-8.391,1.061-12.073,3.069c-0.485,0.264-0.664,0.871-0.4,1.356c0.264,0.485,0.871,0.664,1.357,0.399   C17.523,2.977,21.367,2,25.25,2C38.07,2,48.5,12.43,48.5,25.25S38.07,48.5,25.25,48.5S2,38.07,2,25.25   c0-6.261,2.455-12.135,6.913-16.539C9.306,8.323,9.31,7.69,8.921,7.297C8.533,6.904,7.9,6.901,7.507,7.289   C2.666,12.071,0,18.45,0,25.25C0,39.173,11.327,50.5,25.25,50.5c13.923,0,25.25-11.327,25.25-25.25C50.5,11.327,39.173,0,25.25,0z" fill="#FFFFFF"/>
	<path d="M26.173,34.003c-0.452,0.318-0.561,0.942-0.243,1.393c0.195,0.277,0.504,0.425,0.819,0.425   c0.199,0,0.399-0.059,0.574-0.182l13.604-9.571c0.267-0.188,0.425-0.492,0.425-0.818s-0.158-0.63-0.425-0.818l-13.604-9.571   c-0.452-0.318-1.075-0.209-1.393,0.243c-0.318,0.452-0.209,1.075,0.243,1.393l12.441,8.753L26.173,34.003z" fill="#FFFFFF"/>
	<path d="M13.145,29.763c0.552,0,1-0.448,1-1V17.605l10.866,7.645L12.57,34.003c-0.452,0.318-0.561,0.942-0.243,1.393   c0.195,0.277,0.504,0.425,0.819,0.425c0.199,0,0.399-0.059,0.574-0.182l13.604-9.571c0.267-0.188,0.425-0.492,0.425-0.818   s-0.158-0.63-0.425-0.818L13.72,14.861c-0.306-0.215-0.705-0.241-1.036-0.07c-0.331,0.172-0.539,0.514-0.539,0.888v13.084   C12.145,29.315,12.593,29.763,13.145,29.763z" fill="#FFFFFF"/>
</g>
<g>
</g>
<g>
</g>
<g>
</g>
<g>
</g>
<g>
</g>
<g>
</g>
<g>
</g>
<g>
</g>
<g>
</g>
<g>
</g>
<g>
</g>
<g>
</g>
<g>
</g>
<g>
</g>
<g>
</g>
</svg>
