<?xml version="1.0" encoding="iso-8859-1"?>
<!-- Generator: Adobe Illustrator 19.0.0, SVG Export Plug-In . SVG Version: 6.00 Build 0)  -->
<svg xmlns="http://www.w3.org/2000/svg" xmlns:xlink="http://www.w3.org/1999/xlink" version="1.1" id="Capa_1" x="0px" y="0px" viewBox="0 0 50.5 50.5" style="enable-background:new 0 0 50.5 50.5;" xml:space="preserve" width="512px" height="512px">
<g>
	<path d="M25.25,0c-4.217,0-8.391,1.061-12.073,3.069c-0.485,0.265-0.664,0.872-0.399,1.357c0.264,0.484,0.871,0.664,1.357,0.399   C17.523,2.977,21.367,2,25.25,2C38.07,2,48.5,12.43,48.5,25.25S38.07,48.5,25.25,48.5C12.43,48.5,2,38.07,2,25.25   c0-6.261,2.455-12.135,6.913-16.539C9.306,8.323,9.31,7.69,8.922,7.297C8.533,6.904,7.9,6.901,7.508,7.289   C2.667,12.071,0,18.45,0,25.25C0,39.173,11.327,50.5,25.25,50.5c13.923,0,25.25-11.327,25.25-25.25C50.5,11.327,39.173,0,25.25,0z" fill="#FFFFFF"/>
	<path d="M9.572,26.068l13.603,9.571c0.175,0.123,0.376,0.182,0.574,0.182c0.314,0,0.624-0.148,0.819-0.425   c0.318-0.452,0.209-1.075-0.243-1.393L11.885,25.25l12.441-8.753c0.452-0.318,0.561-0.941,0.243-1.393   c-0.318-0.452-0.942-0.561-1.393-0.243L9.572,24.432c-0.267,0.188-0.425,0.492-0.425,0.818S9.306,25.88,9.572,26.068z" fill="#FFFFFF"/>
	<path d="M37.355,29.763c0.552,0,1-0.448,1-1V15.679c0-0.373-0.208-0.715-0.539-0.888c-0.33-0.171-0.73-0.144-1.036,0.07   l-13.604,9.571c-0.267,0.188-0.425,0.492-0.425,0.818s0.158,0.63,0.425,0.818l13.604,9.571c0.175,0.123,0.375,0.182,0.574,0.182   c0.314,0,0.624-0.148,0.819-0.425c0.318-0.452,0.209-1.075-0.243-1.393L25.489,25.25l10.866-7.645v11.158   C36.355,29.315,36.803,29.763,37.355,29.763z" fill="#FFFFFF"/>
</g>
<g>
</g>
<g>
</g>
<g>
</g>
<g>
</g>
<g>
</g>
<g>
</g>
<g>
</g>
<g>
</g>
<g>
</g>
<g>
</g>
<g>
</g>
<g>
</g>
<g>
</g>
<g>
</g>
<g>
</g>
</svg>
